<?xml version="1.0" encoding="utf-8"?>
<!-- Generator: Adobe Illustrator 22.1.0, SVG Export Plug-In . SVG Version: 6.00 Build 0)  -->
<svg version="1.1" id="Capa_1" xmlns="http://www.w3.org/2000/svg" xmlns:xlink="http://www.w3.org/1999/xlink" x="0px" y="0px"
	 viewBox="0 0 480 480" style="enable-background:new 0 0 480 480;" xml:space="preserve">
<style type="text/css">
	.st0{fill:#6AFFDA;}
</style>
<g>
	<g>
		<rect x="297" y="288" class="st0" width="128" height="32"/>
	</g>
</g>
<g>
	<g>
		<polygon class="st0" points="216.5,157.3 197.8,176 259.9,238 197.8,300 216.5,318.7 297,238 		"/>
	</g>
</g>
<path class="st0" d="M135.2,214.7h-13.3c-10.4,0-18.6-9-17.4-19.4c1-9.2,9.4-15.7,18.6-15.7h15.7c5.9,0,10.8,4.1,11.9,9.6
	c0.4,1.6,1.8,2.5,3.3,2.5h17.6c2,0,3.7-1.8,3.5-3.7c-1.8-17.8-16.3-31.7-34.3-32.9v-17.6c0-2-1.6-3.5-3.5-3.5h-17.6
	c-2,0-3.5,1.6-3.5,3.5v17.8c-21.9,2.9-38.6,22.7-36.4,46c2.2,21.9,21.9,38,43.9,38h11.6c10.4,0,18.6,9,17.4,19.4
	c-1,9.2-9.4,15.7-18.6,15.7h-15.7c-5.9,0-10.8-4.1-11.9-9.6c-0.4-1.6-1.8-2.5-3.3-2.5H85.5c-2,0-3.7,1.8-3.5,3.7
	c1.8,17.8,16.3,31.7,34.3,32.9v17.6c0,2,1.6,3.5,3.5,3.5h17.6c2,0,3.5-1.6,3.5-3.5v-18c18.8-3.1,34.5-17.8,36.4-37.2
	C179.6,236,159.9,214.7,135.2,214.7z"/>
</svg>
